<mxfile host="app.diagrams.net" modified="2023-06-16T01:25:58.934Z" agent="Mozilla/5.0 (Windows NT 10.0; Win64; x64) AppleWebKit/537.36 (KHTML, like Gecko) Chrome/114.0.0.0 Safari/537.36" etag="EpcsUkoKgs5PX4mWI6Ra" version="21.3.7" type="device">
  <diagram name="페이지-1" id="Jdhksqax9QhiYFYxhbk6">
    <mxGraphModel dx="1647" dy="1868" grid="1" gridSize="10" guides="1" tooltips="1" connect="1" arrows="1" fold="1" page="1" pageScale="1" pageWidth="1390" pageHeight="980" math="0" shadow="0">
      <root>
        <mxCell id="0" />
        <mxCell id="1" parent="0" />
        <mxCell id="coRyojW-JwQaj8nHcGL3-7" style="rounded=0;orthogonalLoop=1;jettySize=auto;html=1;entryX=0.5;entryY=0;entryDx=0;entryDy=0;exitX=0.5;exitY=1;exitDx=0;exitDy=0;" edge="1" parent="1" source="coRyojW-JwQaj8nHcGL3-1" target="coRyojW-JwQaj8nHcGL3-2">
          <mxGeometry relative="1" as="geometry" />
        </mxCell>
        <mxCell id="coRyojW-JwQaj8nHcGL3-8" style="rounded=0;orthogonalLoop=1;jettySize=auto;html=1;exitX=0.5;exitY=1;exitDx=0;exitDy=0;" edge="1" parent="1" source="coRyojW-JwQaj8nHcGL3-1" target="coRyojW-JwQaj8nHcGL3-3">
          <mxGeometry relative="1" as="geometry" />
        </mxCell>
        <mxCell id="coRyojW-JwQaj8nHcGL3-9" style="rounded=0;orthogonalLoop=1;jettySize=auto;html=1;entryX=0.5;entryY=0;entryDx=0;entryDy=0;" edge="1" parent="1" source="coRyojW-JwQaj8nHcGL3-1" target="coRyojW-JwQaj8nHcGL3-4">
          <mxGeometry relative="1" as="geometry" />
        </mxCell>
        <mxCell id="coRyojW-JwQaj8nHcGL3-10" style="rounded=0;orthogonalLoop=1;jettySize=auto;html=1;entryX=0.421;entryY=0.031;entryDx=0;entryDy=0;entryPerimeter=0;exitX=0.5;exitY=1;exitDx=0;exitDy=0;" edge="1" parent="1" source="coRyojW-JwQaj8nHcGL3-1" target="coRyojW-JwQaj8nHcGL3-5">
          <mxGeometry relative="1" as="geometry" />
        </mxCell>
        <mxCell id="coRyojW-JwQaj8nHcGL3-11" style="rounded=0;orthogonalLoop=1;jettySize=auto;html=1;entryX=0.5;entryY=0;entryDx=0;entryDy=0;exitX=0.5;exitY=1;exitDx=0;exitDy=0;" edge="1" parent="1" source="coRyojW-JwQaj8nHcGL3-1" target="coRyojW-JwQaj8nHcGL3-6">
          <mxGeometry relative="1" as="geometry" />
        </mxCell>
        <mxCell id="coRyojW-JwQaj8nHcGL3-1" value="상품정보" style="rounded=1;arcSize=10;whiteSpace=wrap;html=1;align=center;fillColor=#fff2cc;strokeColor=#d6b656;" vertex="1" parent="1">
          <mxGeometry x="695" y="80" width="100" height="40" as="geometry" />
        </mxCell>
        <mxCell id="coRyojW-JwQaj8nHcGL3-2" value="상품코드" style="ellipse;whiteSpace=wrap;html=1;align=center;fontStyle=4;fillColor=#e1d5e7;strokeColor=#9673a6;" vertex="1" parent="1">
          <mxGeometry x="460" y="200" width="100" height="40" as="geometry" />
        </mxCell>
        <mxCell id="coRyojW-JwQaj8nHcGL3-3" value="상품명" style="ellipse;whiteSpace=wrap;html=1;align=center;" vertex="1" parent="1">
          <mxGeometry x="580" y="200" width="100" height="40" as="geometry" />
        </mxCell>
        <mxCell id="coRyojW-JwQaj8nHcGL3-4" value="품목" style="ellipse;whiteSpace=wrap;html=1;align=center;" vertex="1" parent="1">
          <mxGeometry x="695" y="200" width="100" height="40" as="geometry" />
        </mxCell>
        <mxCell id="coRyojW-JwQaj8nHcGL3-5" value="맵입단가" style="ellipse;whiteSpace=wrap;html=1;align=center;" vertex="1" parent="1">
          <mxGeometry x="810" y="200" width="100" height="40" as="geometry" />
        </mxCell>
        <mxCell id="coRyojW-JwQaj8nHcGL3-6" value="매출단가" style="ellipse;whiteSpace=wrap;html=1;align=center;" vertex="1" parent="1">
          <mxGeometry x="920" y="200" width="100" height="40" as="geometry" />
        </mxCell>
        <mxCell id="coRyojW-JwQaj8nHcGL3-12" style="rounded=0;orthogonalLoop=1;jettySize=auto;html=1;entryX=0.5;entryY=0;entryDx=0;entryDy=0;exitX=0.5;exitY=1;exitDx=0;exitDy=0;" edge="1" source="coRyojW-JwQaj8nHcGL3-17" target="coRyojW-JwQaj8nHcGL3-18" parent="1">
          <mxGeometry relative="1" as="geometry" />
        </mxCell>
        <mxCell id="coRyojW-JwQaj8nHcGL3-13" style="rounded=0;orthogonalLoop=1;jettySize=auto;html=1;exitX=0.5;exitY=1;exitDx=0;exitDy=0;" edge="1" source="coRyojW-JwQaj8nHcGL3-17" target="coRyojW-JwQaj8nHcGL3-19" parent="1">
          <mxGeometry relative="1" as="geometry" />
        </mxCell>
        <mxCell id="coRyojW-JwQaj8nHcGL3-14" style="rounded=0;orthogonalLoop=1;jettySize=auto;html=1;entryX=0.5;entryY=0;entryDx=0;entryDy=0;" edge="1" target="coRyojW-JwQaj8nHcGL3-20" parent="1">
          <mxGeometry relative="1" as="geometry">
            <mxPoint x="1290" y="110" as="sourcePoint" />
          </mxGeometry>
        </mxCell>
        <mxCell id="coRyojW-JwQaj8nHcGL3-15" style="rounded=0;orthogonalLoop=1;jettySize=auto;html=1;entryX=0.421;entryY=0.031;entryDx=0;entryDy=0;entryPerimeter=0;exitX=0.5;exitY=1;exitDx=0;exitDy=0;" edge="1" source="coRyojW-JwQaj8nHcGL3-17" target="coRyojW-JwQaj8nHcGL3-21" parent="1">
          <mxGeometry relative="1" as="geometry" />
        </mxCell>
        <mxCell id="coRyojW-JwQaj8nHcGL3-17" value="고객정보" style="rounded=1;arcSize=10;whiteSpace=wrap;html=1;align=center;fillColor=#fff2cc;strokeColor=#d6b656;" vertex="1" parent="1">
          <mxGeometry x="1240" y="70" width="100" height="40" as="geometry" />
        </mxCell>
        <mxCell id="coRyojW-JwQaj8nHcGL3-18" value="고객ID" style="ellipse;whiteSpace=wrap;html=1;align=center;fontStyle=4;fillColor=#e1d5e7;strokeColor=#9673a6;" vertex="1" parent="1">
          <mxGeometry x="1050" y="200" width="100" height="40" as="geometry" />
        </mxCell>
        <mxCell id="coRyojW-JwQaj8nHcGL3-19" value="고객이름" style="ellipse;whiteSpace=wrap;html=1;align=center;" vertex="1" parent="1">
          <mxGeometry x="1170" y="200" width="100" height="40" as="geometry" />
        </mxCell>
        <mxCell id="coRyojW-JwQaj8nHcGL3-20" value="전화번호" style="ellipse;whiteSpace=wrap;html=1;align=center;" vertex="1" parent="1">
          <mxGeometry x="1285" y="200" width="100" height="40" as="geometry" />
        </mxCell>
        <mxCell id="coRyojW-JwQaj8nHcGL3-21" value="주소" style="ellipse;whiteSpace=wrap;html=1;align=center;" vertex="1" parent="1">
          <mxGeometry x="1400" y="200" width="100" height="40" as="geometry" />
        </mxCell>
        <mxCell id="coRyojW-JwQaj8nHcGL3-29" style="rounded=0;orthogonalLoop=1;jettySize=auto;html=1;entryX=0.5;entryY=0;entryDx=0;entryDy=0;exitX=0.5;exitY=1;exitDx=0;exitDy=0;" edge="1" parent="1" source="coRyojW-JwQaj8nHcGL3-23" target="coRyojW-JwQaj8nHcGL3-17">
          <mxGeometry relative="1" as="geometry">
            <mxPoint x="1020" y="-30" as="sourcePoint" />
          </mxGeometry>
        </mxCell>
        <mxCell id="coRyojW-JwQaj8nHcGL3-35" style="rounded=0;orthogonalLoop=1;jettySize=auto;html=1;entryX=0.5;entryY=1;entryDx=0;entryDy=0;exitX=0.5;exitY=0;exitDx=0;exitDy=0;" edge="1" parent="1" source="coRyojW-JwQaj8nHcGL3-23" target="coRyojW-JwQaj8nHcGL3-34">
          <mxGeometry relative="1" as="geometry" />
        </mxCell>
        <mxCell id="coRyojW-JwQaj8nHcGL3-36" style="edgeStyle=none;shape=connector;rounded=0;orthogonalLoop=1;jettySize=auto;html=1;entryX=1;entryY=1;entryDx=0;entryDy=0;labelBackgroundColor=default;strokeColor=default;fontFamily=Helvetica;fontSize=11;fontColor=default;endArrow=classic;exitX=0.5;exitY=0;exitDx=0;exitDy=0;" edge="1" parent="1" source="coRyojW-JwQaj8nHcGL3-23" target="coRyojW-JwQaj8nHcGL3-30">
          <mxGeometry relative="1" as="geometry" />
        </mxCell>
        <mxCell id="coRyojW-JwQaj8nHcGL3-37" style="edgeStyle=none;shape=connector;rounded=0;orthogonalLoop=1;jettySize=auto;html=1;entryX=0.5;entryY=1;entryDx=0;entryDy=0;labelBackgroundColor=default;strokeColor=default;fontFamily=Helvetica;fontSize=11;fontColor=default;endArrow=classic;" edge="1" parent="1" source="coRyojW-JwQaj8nHcGL3-23" target="coRyojW-JwQaj8nHcGL3-31">
          <mxGeometry relative="1" as="geometry" />
        </mxCell>
        <mxCell id="coRyojW-JwQaj8nHcGL3-38" style="edgeStyle=none;shape=connector;rounded=0;orthogonalLoop=1;jettySize=auto;html=1;entryX=0.399;entryY=1.003;entryDx=0;entryDy=0;entryPerimeter=0;labelBackgroundColor=default;strokeColor=default;fontFamily=Helvetica;fontSize=11;fontColor=default;endArrow=classic;exitX=0.5;exitY=0;exitDx=0;exitDy=0;" edge="1" parent="1" source="coRyojW-JwQaj8nHcGL3-23" target="coRyojW-JwQaj8nHcGL3-32">
          <mxGeometry relative="1" as="geometry" />
        </mxCell>
        <mxCell id="coRyojW-JwQaj8nHcGL3-39" style="edgeStyle=none;shape=connector;rounded=0;orthogonalLoop=1;jettySize=auto;html=1;entryX=0.5;entryY=1;entryDx=0;entryDy=0;labelBackgroundColor=default;strokeColor=default;fontFamily=Helvetica;fontSize=11;fontColor=default;endArrow=classic;exitX=0.5;exitY=0;exitDx=0;exitDy=0;" edge="1" parent="1" source="coRyojW-JwQaj8nHcGL3-23" target="coRyojW-JwQaj8nHcGL3-33">
          <mxGeometry relative="1" as="geometry" />
        </mxCell>
        <mxCell id="coRyojW-JwQaj8nHcGL3-23" value="판매내역" style="shape=rhombus;perimeter=rhombusPerimeter;whiteSpace=wrap;html=1;align=center;fillColor=#fff2cc;strokeColor=#d6b656;" vertex="1" parent="1">
          <mxGeometry x="980" y="-80" width="120" height="60" as="geometry" />
        </mxCell>
        <mxCell id="coRyojW-JwQaj8nHcGL3-24" value="" style="endArrow=none;html=1;rounded=0;exitX=0.5;exitY=0;exitDx=0;exitDy=0;entryX=0.5;entryY=1;entryDx=0;entryDy=0;" edge="1" parent="1" source="coRyojW-JwQaj8nHcGL3-1" target="coRyojW-JwQaj8nHcGL3-23">
          <mxGeometry relative="1" as="geometry">
            <mxPoint x="820" y="50" as="sourcePoint" />
            <mxPoint x="1040" y="-30" as="targetPoint" />
          </mxGeometry>
        </mxCell>
        <mxCell id="coRyojW-JwQaj8nHcGL3-25" value="N" style="resizable=0;html=1;whiteSpace=wrap;align=right;verticalAlign=bottom;" connectable="0" vertex="1" parent="coRyojW-JwQaj8nHcGL3-24">
          <mxGeometry x="1" relative="1" as="geometry" />
        </mxCell>
        <mxCell id="coRyojW-JwQaj8nHcGL3-30" value="거래일자" style="ellipse;whiteSpace=wrap;html=1;align=center;" vertex="1" parent="1">
          <mxGeometry x="850" y="-200" width="100" height="40" as="geometry" />
        </mxCell>
        <mxCell id="coRyojW-JwQaj8nHcGL3-31" value="거래시각" style="ellipse;whiteSpace=wrap;html=1;align=center;" vertex="1" parent="1">
          <mxGeometry x="980" y="-200" width="100" height="40" as="geometry" />
        </mxCell>
        <mxCell id="coRyojW-JwQaj8nHcGL3-32" value="수량" style="ellipse;whiteSpace=wrap;html=1;align=center;" vertex="1" parent="1">
          <mxGeometry x="1100" y="-200" width="100" height="40" as="geometry" />
        </mxCell>
        <mxCell id="coRyojW-JwQaj8nHcGL3-33" value="판매단가" style="ellipse;whiteSpace=wrap;html=1;align=center;" vertex="1" parent="1">
          <mxGeometry x="1220" y="-200" width="100" height="40" as="geometry" />
        </mxCell>
        <mxCell id="coRyojW-JwQaj8nHcGL3-34" value="SEQ" style="ellipse;whiteSpace=wrap;html=1;align=center;fontStyle=4;fillColor=#e1d5e7;strokeColor=#9673a6;" vertex="1" parent="1">
          <mxGeometry x="720" y="-200" width="100" height="40" as="geometry" />
        </mxCell>
      </root>
    </mxGraphModel>
  </diagram>
</mxfile>
